# xmcd
#
# Track frame offsets: 
#        150
#        18052
#        46595
#        73437
#
# Disc length: 1301 seconds
#
# Revision: 1
# Processed by: cddbd v1.5.2PL0 Copyright (c) Steve Scherf et al.
# Submitted via: ExactAudioCopy v0.99pb5
#
DISCID=2a051304
DTITLE=Dirty Beatniks - Don't Stop EP
DYEAR=1997
DGENRE=Electronic
TTITLE0=Don't Stop ('97 Radio Edit)
TTITLE1=Mad Buzz
TTITLE2=The Flip
TTITLE3=Don't Stop (Q-burns Abstract Message Remix)
EXTD=YEAR: 1997
EXTT0=
EXTT1=
EXTT2=
EXTT3=
PLAYORDER=
